<svg xmlns="http://www.w3.org/2000/svg" viewBox="0 0 508.07 155.4"><defs><style>.cls-1{fill:#fff;}.cls-2{fill:#ccc;}.cls-3{fill:#989898;}.cls-4{fill:#666;}</style></defs><g id="Layer_2" data-name="Layer 2"><g id="Layer_1-2" data-name="Layer 1"><path class="cls-1" d="M0,121.79a11.57,11.57,0,0,1,8-11,11.58,11.58,0,0,1,0-22,11.58,11.58,0,0,1,0-22,11.58,11.58,0,0,1,0-22,11.57,11.57,0,1,1,7.08,0,11.58,11.58,0,0,1,0,22,11.58,11.58,0,0,1,0,22,11.58,11.58,0,0,1,0,22A11.57,11.57,0,1,1,0,121.79ZM11,11.57A11.58,11.58,0,0,1,33.62,8a11.58,11.58,0,0,1,22,0,11.58,11.58,0,0,1,22,0,11.58,11.58,0,1,1,0,7.08,11.57,11.57,0,0,1-22,0,11.57,11.57,0,0,1-22,0A11.58,11.58,0,0,1,11,11.57Zm0,132.26a11.58,11.58,0,0,1,22.6-3.54,11.58,11.58,0,0,1,22,0,11.58,11.58,0,0,1,22,0,11.57,11.57,0,1,1,0,7.08,11.58,11.58,0,0,1-22,0,11.58,11.58,0,0,1-22,0A11.58,11.58,0,0,1,11,143.83ZM88.17,33.62A11.58,11.58,0,1,1,99.75,45.19,11.57,11.57,0,0,1,88.17,33.62Zm0,88.17a11.58,11.58,0,1,1,11.58,11.57A11.57,11.57,0,0,1,88.17,121.79Z"/><path class="cls-2" d="M132.25,143.83a11.57,11.57,0,0,1,8-11,11.57,11.57,0,0,1,0-22,11.58,11.58,0,0,1,0-22,11.57,11.57,0,0,1,0-22,11.57,11.57,0,0,1,0-22,11.58,11.58,0,0,1,0-22A11.57,11.57,0,1,1,154.85,8a11.58,11.58,0,0,1,22,0,11.58,11.58,0,0,1,22,0,11.58,11.58,0,0,1,22,0,11.58,11.58,0,1,1,0,7.08,11.58,11.58,0,0,1-22,0,11.57,11.57,0,0,1-22,0,11.57,11.57,0,0,1-22,0,11.58,11.58,0,0,1-7.49,7.48,11.58,11.58,0,0,1,0,22.05,11.57,11.57,0,0,1,0,22,11.62,11.62,0,0,1,7.49,7.48,11.58,11.58,0,0,1,22,0,11.58,11.58,0,0,1,22,0,11.57,11.57,0,1,1,0,7.08,11.58,11.58,0,0,1-22,0,11.58,11.58,0,0,1-22,0,11.58,11.58,0,0,1-7.49,7.48,11.58,11.58,0,0,1,0,22,11.57,11.57,0,0,1,0,22,11.62,11.62,0,0,1,7.49,7.48,11.58,11.58,0,0,1,22,0,11.58,11.58,0,0,1,22,0,11.58,11.58,0,0,1,22,0,11.57,11.57,0,1,1,0,7.08,11.58,11.58,0,0,1-22,0,11.58,11.58,0,0,1-22,0,11.58,11.58,0,0,1-22,0,11.58,11.58,0,0,1-22.6-3.54Z"/><path class="cls-3" d="M264.5,143.83a11.57,11.57,0,0,1,8-11,11.57,11.57,0,0,1,0-22,11.58,11.58,0,0,1,0-22,11.57,11.57,0,0,1,0-22,11.57,11.57,0,0,1,0-22,11.58,11.58,0,0,1,0-22A11.57,11.57,0,1,1,287.1,8a11.58,11.58,0,0,1,22,0,11.58,11.58,0,0,1,22,0,11.58,11.58,0,1,1,0,7.08,11.57,11.57,0,0,1-22,0,11.57,11.57,0,0,1-22,0,11.58,11.58,0,0,1-7.49,7.48,11.58,11.58,0,0,1,0,22.05,11.57,11.57,0,0,1,0,22,11.62,11.62,0,0,1,7.49,7.48,11.58,11.58,0,0,1,22,0,11.58,11.58,0,0,1,22,0,11.58,11.58,0,1,1,14.56,14.56,11.58,11.58,0,1,1-7.07,0,11.58,11.58,0,0,1-7.49-7.48,11.58,11.58,0,0,1-22,0,11.58,11.58,0,0,1-22,0,11.58,11.58,0,0,1-7.49,7.48,11.58,11.58,0,0,1,0,22,11.57,11.57,0,0,1,0,22,11.57,11.57,0,1,1-15.11,11Zm77.15-22a11.58,11.58,0,1,1,11.57,11.57A11.57,11.57,0,0,1,341.65,121.79Zm11-66.13a11.57,11.57,0,0,1,8-11,11.58,11.58,0,1,1,7.07,0,11.57,11.57,0,1,1-15.11,11Zm0,88.17a11.58,11.58,0,1,1,11.58,11.57A11.57,11.57,0,0,1,352.67,143.83Z"/><path class="cls-4" d="M396.76,121.79a11.57,11.57,0,0,1,8-11,11.58,11.58,0,0,1,0-22,11.58,11.58,0,0,1,0-22,11.58,11.58,0,0,1,0-22,11.57,11.57,0,1,1,7.08,0,11.58,11.58,0,0,1,0,22,11.58,11.58,0,0,1,0,22,11.58,11.58,0,0,1,0,22,11.57,11.57,0,1,1-15.11,11Zm11-110.22A11.57,11.57,0,0,1,430.37,8a11.58,11.58,0,0,1,22,0,11.58,11.58,0,0,1,22,0,11.58,11.58,0,1,1,0,7.08,11.57,11.57,0,0,1-22,0,11.57,11.57,0,0,1-22,0,11.57,11.57,0,0,1-22.59-3.54Zm0,132.26a11.57,11.57,0,0,1,22.59-3.54,11.58,11.58,0,0,1,22,0,11.58,11.58,0,0,1,22,0,11.57,11.57,0,1,1,0,7.08,11.58,11.58,0,0,1-22,0,11.58,11.58,0,0,1-22,0,11.57,11.57,0,0,1-22.59-3.54ZM484.93,33.62A11.57,11.57,0,1,1,496.5,45.19,11.57,11.57,0,0,1,484.93,33.62Zm0,88.17a11.57,11.57,0,1,1,11.57,11.57A11.57,11.57,0,0,1,484.93,121.79Z"/></g></g></svg>