<svg width="1350" height="480" viewBox="0 0 1350 480" fill="none" xmlns="http://www.w3.org/2000/svg">
<path fill-rule="evenodd" clip-rule="evenodd" d="M174.027 244.843C195.732 223.139 209.166 193.165 209.161 160.071C209.169 155.579 208.92 151.137 208.427 146.75L142.56 146.756L142.563 273.312C142.557 288.652 148.406 303.997 160.105 315.696C171.804 327.395 187.161 333.251 202.503 333.243L202.5 333.247L329.06 333.25L329.056 267.374C324.679 266.891 320.236 266.642 315.735 266.641C282.649 266.645 252.674 280.079 230.969 301.783C215.175 317.181 189.852 317.184 174.253 301.585C158.663 285.996 158.657 260.665 174.027 244.843ZM315.398 160.445C297.209 142.256 267.657 142.249 249.461 160.445C231.265 178.64 231.271 208.192 249.461 226.38C267.659 244.579 297.202 244.576 315.398 226.38C333.594 208.185 333.597 178.643 315.398 160.445Z" fill="#FBFBFB"/>
<path d="M436.06 320.041H508.62V299.026H460.314V159.928H436.06V320.041Z" fill="#FBFBFB"/>
<path d="M607.051 159.928H566.83L524.79 320.041H549.852L560.362 280.013H612.306L622.816 320.041H649.091L607.051 159.928ZM565.415 259.999L586.435 177.14H587.244L607.455 259.999H565.415Z" fill="#FBFBFB"/>
<path d="M729.383 221.986H757.679C757.679 176.354 742.925 156.74 708.565 156.74C672.386 156.74 656.823 181.558 656.823 239.799C656.823 298.24 672.386 323.258 708.565 323.258C742.925 323.258 757.679 304.244 757.881 260.013H729.585C729.383 294.638 725.139 303.244 708.565 303.244C689.566 303.244 684.918 290.635 685.12 239.799C685.12 189.163 689.768 176.554 708.565 176.754C725.139 176.754 729.383 185.761 729.383 221.986Z" fill="#FBFBFB"/>
<path d="M830.544 156.741C867.329 156.942 883.094 181.959 883.094 240C883.094 298.041 867.329 323.059 830.544 323.259C793.557 323.459 777.792 298.441 777.792 240C777.792 181.559 793.557 156.541 830.544 156.741ZM806.088 240C806.088 290.636 810.939 303.245 830.544 303.245C849.947 303.245 854.798 290.636 854.798 240C854.798 189.164 849.947 176.555 830.544 176.756C810.939 176.956 806.088 189.565 806.088 240Z" fill="#FBFBFB"/>
<path d="M935.957 319.841L911.703 320.041V159.928H954.349L994.166 290.42H994.57V159.928H1018.82V320.041H978.805L936.361 179.542H935.957V319.841Z" fill="#FBFBFB"/>
<path d="M1079.43 159.928H1055.18V320.041H1079.43V159.928Z" fill="#FBFBFB"/>
<path d="M1178.94 221.986H1207.24C1207.24 176.354 1192.48 156.74 1158.12 156.74C1121.94 156.74 1106.38 181.558 1106.38 239.799C1106.38 298.24 1121.94 323.258 1158.12 323.258C1192.48 323.258 1207.24 304.244 1207.44 260.013H1179.14C1178.94 294.638 1174.7 303.244 1158.12 303.244C1139.12 303.244 1134.48 290.635 1134.68 239.799C1134.68 189.163 1139.33 176.554 1158.12 176.754C1174.7 176.754 1178.94 185.761 1178.94 221.986Z" fill="#FBFBFB"/>
</svg>
