<?xml version="1.0" encoding="UTF-8"?>
<svg xmlns="http://www.w3.org/2000/svg" xmlns:xlink="http://www.w3.org/1999/xlink" viewBox="0 0 32 32" width="32px" height="32px">
<g id="surface7762496">
<path style=" stroke:none;fill-rule:nonzero;fill:rgb(100%,100%,100%);fill-opacity:1;" d="M 16.109375 3 C 8.996094 3 3 8.714844 3 15.773438 C 3 16 3.003906 29 3.003906 29 L 16.109375 28.988281 C 23.230469 28.988281 29 23.050781 29 15.996094 C 29 8.9375 23.230469 3 16.109375 3 Z M 16 8 C 20.417969 8 24 11.582031 24 16 C 24 20.417969 20.417969 24 16 24 C 14.578125 24 13.246094 23.625 12.09375 22.976562 L 8 24 L 9.121094 20.070312 C 8.414062 18.878906 8 17.488281 8 16 C 8 11.582031 11.582031 8 16 8 Z M 16 8 "/>
</g>
</svg>
